<?xml version="1.0" encoding="UTF-8"?>
<svg id="Capa_1" data-name="Capa 1" xmlns="http://www.w3.org/2000/svg" viewBox="0 0 1000 1000">
  <defs>
    <style>
      .cls-1 {
        fill: #e0ba00;
      }
    </style>
  </defs>
  <path class="cls-1" d="M120.95,710.18v-7.79c47.42,1.07,62.51-18.38,76.65-59.53,18.11-52.72,31.08-108.96,47.93-162.26-52.38-20.36-122.79-45.53-145.99-101.71-20.29-49.15-11.66-107.08-1.89-157.68h6.18c-5.86,47.59.34,96.41,27.37,136.89,28.09,42.05,81.06,66.27,126.64,84.24L388.57,1.1l3.9-1.1,234.09,696.97-12.25.57c-9.8-29.16-26.73-56.65-47.61-79.26-3.37-3.65-22.39-22.32-25.26-23.12-6.99-1.93-37.46,18.32-44.01,23.9-53.1,45.23-60.62,135.85-47.45,200.15,25.86,126.22,141.73,180.07,262.49,156.81,191.19-36.82,221.53-265.79,89.94-389.67-108.03-101.7-343.37-148.1-280.51-347.7,35.71-113.4,148.06-132.93,250.18-98.48,18.87,6.37,54.83,26.29,71.53,28.06,19.06,2.02,25.92-8.4,25.69-26.48l7.56,2.56,11.1,139.15-10.82-.06c-16.43-70.65-91.26-127.54-160.26-140.92-168.38-32.65-231.66,152.92-111.34,259.39,99.67,88.19,258.55,115.22,305.82,259.19,80.77,246.05-188.91,416.3-399.39,303.22-135.62-72.86-150.13-280.46-18.1-362.82l33.13-17.41c-81.94-54.6-177.9-72.08-270.69-99.69-11.1,51.78-32.25,102.52-44.69,153.84-9.45,39.01-10.02,67.75,40.02,64.18v7.79H120.95ZM547.23,570.02L382.35,63.9l-113.6,383.07c96.68,30.05,204.13,48.85,278.48,123.05Z"/>
</svg>